<?xml version="1.0" encoding="UTF-8"?>
<svg width="98px" height="28px" viewBox="0 0 98 28" version="1.1" xmlns="http://www.w3.org/2000/svg" xmlns:xlink="http://www.w3.org/1999/xlink">
    <!-- Generator: Sketch 48.2 (47327) - http://www.bohemiancoding.com/sketch -->
    <title>Group 8</title>
    <desc>Created with Sketch.</desc>
    <defs></defs>
    <g id="Desktop" stroke="none" stroke-width="1" fill="none" fill-rule="evenodd" transform="translate(-86.000000, -32.000000)">
        <g id="Group-8" transform="translate(86.000000, 32.000000)" fill="#FFFFFF">
            <path d="M11.5670135,16.0912396 C9.0773584,16.0912396 7.05913179,14.0708841 7.05913179,11.5787744 C7.05913179,9.0865879 9.0773584,7.06630924 11.5670135,7.06630924 C14.0566687,7.06630924 16.0748953,9.0865879 16.0748953,11.5787744 C16.0748953,14.0708841 14.0566687,16.0912396 11.5670135,16.0912396 M19.7788778,3.39696458 C15.2541922,-1.13232153 7.91819977,-1.13232153 3.39351419,3.39696458 C-1.1311714,7.92625068 -1.1311714,15.2697021 3.39351419,19.7989882 C3.46541011,19.8709572 3.53791986,19.9416973 3.61119692,20.0112853 L11.5917973,28 L19.9937215,19.5859998 L19.9863555,19.5859998 C24.3024892,15.0423507 24.2333555,7.85589463 19.7788778,3.39696458" id="Fill-1"></path>
            <path d="M40,7.19919174 L45.5411521,7.19919174 C45.5773688,7.19919174 52.0601545,6.9094583 52.0601545,13.9536026 C52.0601545,13.9536026 52.0963712,20.7623385 45.5411521,20.7804468 L40,20.7804468 L40,18.8247461 L40.8148753,18.8247461 L40.8148753,9.15489247 L40,9.15489247 L40,7.19919174 Z M49.4525535,13.9536026 C49.4525535,9.19110915 45.5411521,9.15489247 45.5411521,9.15489247 L43.4043679,9.15489247 L43.4043679,18.8247461 L45.5411521,18.8247461 C49.4525535,18.8247461 49.4525535,13.9536026 49.4525535,13.9536026 Z M56.7321063,18.8247461 L56.7321063,9.15489247 L55.8991226,9.15489247 L55.8991226,7.1991816 L61.2591913,7.19919174 C62.5267751,7.19919174 65.9492514,7.16297506 65.9492514,11.418435 C65.9492514,14.931453 63.7581422,15.2755114 63.7581422,15.2755114 C65.080051,16.8328287 64.8808593,18.607446 66.8908851,18.8247461 L66.8908851,20.7804468 C65.822493,21.1245053 64.174634,21.0701803 63.5046255,19.9474632 L61.1867579,15.7101116 L59.3215989,15.7101116 L59.3215989,18.8247461 L60.1545825,18.8247461 L60.1545825,20.7804468 L55.8991226,20.7804468 L55.8991226,18.8247461 L56.7321063,18.8247461 Z M61.2591913,13.7544109 C61.2591913,13.7363025 63.3597587,13.9173859 63.3597587,11.4546517 C63.3597587,8.99191741 61.2591913,9.15489247 61.2591913,9.15489247 L59.3215989,9.15489247 L59.3215989,13.7544109 L61.2591913,13.7544109 Z M76.5426303,7 C83.2970412,7 83.0073077,14.0984693 83.0073077,14.0984693 C83.0073077,14.0984693 83.1340661,20.9977469 76.5426303,20.9977469 C76.5426303,20.9977469 70.1141696,21.323697 70.1141696,14.134686 C70.1141696,14.134686 69.9149779,7 76.5426303,7 Z M76.6150637,18.8609628 C81.5586405,18.8066377 81.5586405,9.19110915 76.5426303,9.19110915 C71.5085118,9.19110915 71.5809451,18.9152878 76.6150637,18.8609628 Z M87.8422346,18.8247461 L87.8422346,9.15489247 L87.0273593,9.15489247 L87.0273593,7.19919174 L92.4417529,7.19919174 C98.7072386,7.19919174 98.7434553,16.0903867 92.4236446,16.0903867 L90.4317272,16.0903867 L90.4317272,18.8247461 L91.2466025,18.8247461 L91.2466025,20.7804468 L87.0273593,20.7804468 L87.0273593,18.8247461 L87.8422346,18.8247461 Z M92.0433695,9.15489247 L90.4317272,9.15489247 L90.4317272,14.134686 L92.0433695,14.134686 C92.0433695,14.134686 94.5604287,14.134686 94.5604287,11.6538434 C94.5604287,9.15489247 92.0433695,9.15489247 92.0433695,9.15489247 Z" id="DROP"></path>
        </g>
    </g>
</svg>